<?xml version="1.0" encoding="UTF-8" standalone="no"?>
<!-- Created with Inkscape (http://www.inkscape.org/) -->

<svg
   xmlns:dc="http://purl.org/dc/elements/1.1/"
   xmlns:cc="http://creativecommons.org/ns#"
   xmlns:rdf="http://www.w3.org/1999/02/22-rdf-syntax-ns#"
   xmlns:svg="http://www.w3.org/2000/svg"
   xmlns="http://www.w3.org/2000/svg"
   xmlns:sodipodi="http://sodipodi.sourceforge.net/DTD/sodipodi-0.dtd"
   xmlns:inkscape="http://www.inkscape.org/namespaces/inkscape"
   width="210mm"
   height="297mm"
   viewBox="0 0 210 297"
   version="1.1"
   id="svg12733"
   inkscape:version="0.91+devel "
   sodipodi:docname="distance.svg">
  <defs
     id="defs12727" />
  <sodipodi:namedview
     id="base"
     pagecolor="#ffffff"
     bordercolor="#666666"
     borderopacity="1.0"
     inkscape:pageopacity="0.0"
     inkscape:pageshadow="2"
     inkscape:zoom="44.8"
     inkscape:cx="380.27495"
     inkscape:cy="615.53201"
     inkscape:document-units="mm"
     inkscape:current-layer="layer1"
     showgrid="false"
     inkscape:window-width="1120"
     inkscape:window-height="878"
     inkscape:window-x="2102"
     inkscape:window-y="256"
     inkscape:window-maximized="0" />
  <metadata
     id="metadata12730">
    <rdf:RDF>
      <cc:Work
         rdf:about="">
        <dc:format>image/svg+xml</dc:format>
        <dc:type
           rdf:resource="http://purl.org/dc/dcmitype/StillImage" />
        <dc:title></dc:title>
      </cc:Work>
    </rdf:RDF>
  </metadata>
  <g
     inkscape:label="Layer 1"
     inkscape:groupmode="layer"
     id="layer1">
    <g
       id="g16241">
      <g
         id="g8998"
         style="fill:#000000;fill-opacity:1"
         transform="matrix(0.35277777,0,0,0.35277777,-10.328108,-72.513078)">
        <g
           transform="matrix(0.26458333,0,0,0.26458333,311.39987,587.64008)"
           id="use8996">
          <path
             style="stroke:none"
             d="m 2.78125,-2.250876 c 0.234375,0 0.46875,-0.03125 0.6875,-0.078125 v 3.546875 c 0,0.09375 -0.03125,0.171875 -0.09375,0.25 -0.078125,0.0625 -0.15625,0.09375 -0.25,0.09375 H 2.421875 C 2.34375,1.561624 2.25,1.530374 2.1875,1.467874 2.109375,1.389749 2.078125,1.311624 2.078125,1.217874 V -2.329001 C 2.3125,-2.282126 2.53125,-2.250876 2.78125,-2.250876 Z M 0.8125,-7.344626 c 0.546875,-0.53125 1.203125,-0.796875 1.96875,-0.796875 0.765625,0 1.421875,0.265625 1.953125,0.8125 0.546875,0.53125 0.8125,1.1875 0.8125,1.953125 0,0.765625 -0.265625,1.421875 -0.8125,1.96875 -0.53125,0.546875 -1.1875,0.8125 -1.953125,0.8125 -0.765625,0 -1.421875,-0.265625 -1.96875,-0.8125 C 0.28125,-3.954001 0,-4.610251 0,-5.375876 0,-6.141501 0.265625,-6.797751 0.8125,-7.344626 Z m 1.96875,0.40625 c 0.046875,0.015625 0.09375,0 0.125,-0.046875 0.03125,-0.03125 0.03125,-0.078125 0.03125,-0.125 0,-0.046875 0,-0.09375 -0.03125,-0.125 -0.03125,-0.03125 -0.078125,-0.046875 -0.125,-0.0625 -0.53125,0.015625 -0.984375,0.203125 -1.359375,0.5625 -0.375,0.375 -0.5625,0.828125 -0.5625,1.359375 0,0.0625 0.03125,0.09375 0.0625,0.125 0.015625,0.03125 0.078125,0.046875 0.125,0.046875 0.046875,0 0.09375,-0.015625 0.125,-0.046875 0.03125,-0.03125 0.046875,-0.0625 0.046875,-0.125 0,-0.421875 0.15625,-0.78125 0.453125,-1.09375 0.3125,-0.296875 0.671875,-0.453125 1.109375,-0.46875 z m 0,0"
             id="path12745"
             inkscape:connector-curvature="0" />
        </g>
      </g>
      <g
         transform="matrix(0.35277777,0,0,0.35277777,-9.2355206,-72.52489)"
         style="fill:#000000;fill-opacity:1"
         id="g12799">
        <g
           id="g12797"
           transform="matrix(0.26458333,0,0,0.26458333,311.39987,587.64008)">
          <path
             inkscape:connector-curvature="0"
             id="path12795"
             d="m 2.78125,-2.1243267 c 0.234375,0 0.46875,-0.03125 0.6875,-0.078125 v 3.546875 c 0,0.09375 -0.03125,0.171875 -0.09375,0.25 -0.078125,0.0625 -0.15625,0.09375 -0.25,0.09375 H 2.421875 c -0.078125,0 -0.171875,-0.03125 -0.234375,-0.09375 -0.078125,-0.078125 -0.109375,-0.15625 -0.109375,-0.25 v -3.546875 c 0.234375,0.046875 0.453125,0.078125 0.703125,0.078125 z m -1.96875,-5.09375 c 0.546875,-0.53125 1.203125,-0.796875 1.96875,-0.796875 0.765625,0 1.421875,0.265625 1.953125,0.8125 0.546875,0.53125 0.8125,1.1875 0.8125,1.953125 0,0.765625 -0.265625,1.421875 -0.8125,1.96875 -0.53125,0.546875 -1.1875,0.8125 -1.953125,0.8125 -0.765625,0 -1.421875,-0.265625 -1.96875,-0.8125 C 0.28125,-3.8274517 0,-4.4837017 0,-5.2493267 c 0,-0.765625 0.265625,-1.421875 0.8125,-1.96875 z m 1.96875,0.40625 c 0.046875,0.015625 0.09375,0 0.125,-0.046875 0.03125,-0.03125 0.03125,-0.078125 0.03125,-0.125 0,-0.046875 0,-0.09375 -0.03125,-0.125 -0.03125,-0.03125 -0.078125,-0.046875 -0.125,-0.0625 -0.53125,0.015625 -0.984375,0.203125 -1.359375,0.5625 -0.375,0.375 -0.5625,0.828125 -0.5625,1.359375 0,0.0625 0.03125,0.09375 0.0625,0.125 0.015625,0.03125 0.078125,0.046875 0.125,0.046875 0.046875,0 0.09375,-0.015625 0.125,-0.046875 0.03125,-0.03125 0.046875,-0.0625 0.046875,-0.125 0,-0.421875 0.15625,-0.78125 0.453125,-1.09375 0.3125,-0.296875 0.671875,-0.453125 1.109375,-0.46875 z m 0,0"
             style="stroke:none" />
        </g>
      </g>
      <g
         id="g7262"
         style="fill:#000000;fill-opacity:1"
         transform="matrix(0.35277777,0,0,0.35277777,-10.9597,-34.778084)">
        <path
           sodipodi:nodetypes="cscscscscc"
           inkscape:connector-curvature="0"
           id="path12823"
           d="m 314.89466,480.61248 c 0.0537,0.0579 0.0786,0.12402 0.0786,0.19844 0,0.0786 -0.0248,0.14469 -0.0786,0.1943 -0.0537,0.0538 -0.11989,0.0827 -0.1943,0.0827 -0.0744,0 -0.14056,-0.0289 -0.19431,-0.0827 -0.0537,-0.0496 -0.0827,-0.11575 -0.0827,-0.1943 0,-0.0744 0.0289,-0.14056 0.0827,-0.1943 0.0538,-0.0537 0.11989,-0.0786 0.19431,-0.0786 0.0744,0 0.14056,0.0248 0.1943,0.0744 z"
           style="stroke:none;stroke-width:0.26458332" />
        <path
           style="stroke:none;stroke-width:0.26458332"
           d="m 315.66891,480.61248 c 0.0537,0.0579 0.0786,0.12402 0.0786,0.19844 0,0.0786 -0.0248,0.14469 -0.0786,0.1943 -0.0537,0.0538 -0.11989,0.0827 -0.1943,0.0827 -0.0744,0 -0.14056,-0.0289 -0.19431,-0.0827 -0.0537,-0.0496 -0.0827,-0.11575 -0.0827,-0.1943 0,-0.0744 0.0289,-0.14056 0.0827,-0.1943 0.0538,-0.0537 0.11989,-0.0786 0.19431,-0.0786 0.0744,0 0.14056,0.0248 0.1943,0.0744 z"
           id="path12828"
           inkscape:connector-curvature="0"
           sodipodi:nodetypes="cscscscscc" />
        <path
           sodipodi:nodetypes="cscscscscc"
           inkscape:connector-curvature="0"
           id="path12830"
           d="m 316.44317,480.61248 c 0.0537,0.0579 0.0786,0.12402 0.0786,0.19844 0,0.0786 -0.0248,0.14469 -0.0786,0.1943 -0.0537,0.0538 -0.11989,0.0827 -0.1943,0.0827 -0.0744,0 -0.14056,-0.0289 -0.19431,-0.0827 -0.0537,-0.0496 -0.0827,-0.11575 -0.0827,-0.1943 0,-0.0744 0.0289,-0.14056 0.0827,-0.1943 0.0538,-0.0537 0.11989,-0.0786 0.19431,-0.0786 0.0744,0 0.14056,0.0248 0.1943,0.0744 z"
           style="stroke:none;stroke-width:0.26458332" />
      </g>
    </g>
  </g>
</svg>
