<?xml version="1.0" encoding="UTF-8" standalone="no"?>
<!-- Created with Inkscape (http://www.inkscape.org/) -->

<svg
   xmlns:dc="http://purl.org/dc/elements/1.1/"
   xmlns:cc="http://creativecommons.org/ns#"
   xmlns:rdf="http://www.w3.org/1999/02/22-rdf-syntax-ns#"
   xmlns:svg="http://www.w3.org/2000/svg"
   xmlns="http://www.w3.org/2000/svg"
   xmlns:sodipodi="http://sodipodi.sourceforge.net/DTD/sodipodi-0.dtd"
   xmlns:inkscape="http://www.inkscape.org/namespaces/inkscape"
   width="210mm"
   height="297mm"
   viewBox="0 0 210 297"
   version="1.1"
   id="svg12899"
   inkscape:version="0.91+devel "
   sodipodi:docname="fa-car.svg">
  <defs
     id="defs12893" />
  <sodipodi:namedview
     id="base"
     pagecolor="#ffffff"
     bordercolor="#666666"
     borderopacity="1.0"
     inkscape:pageopacity="0.0"
     inkscape:pageshadow="2"
     inkscape:zoom="0.35"
     inkscape:cx="400"
     inkscape:cy="560"
     inkscape:document-units="mm"
     inkscape:current-layer="layer1"
     showgrid="false"
     inkscape:window-width="1920"
     inkscape:window-height="1087"
     inkscape:window-x="0"
     inkscape:window-y="33"
     inkscape:window-maximized="1" />
  <metadata
     id="metadata12896">
    <rdf:RDF>
      <cc:Work
         rdf:about="">
        <dc:format>image/svg+xml</dc:format>
        <dc:type
           rdf:resource="http://purl.org/dc/dcmitype/StillImage" />
        <dc:title></dc:title>
      </cc:Work>
    </rdf:RDF>
  </metadata>
  <g
     inkscape:label="Layer 1"
     inkscape:groupmode="layer"
     id="layer1">
    <g
       id="use1351"
       style="fill:#000000;fill-opacity:1"
       transform="matrix(0.09333912,0,0,0.09333912,110.60653,157.45654)">
      <path
         inkscape:connector-curvature="0"
         id="path12909"
         d="m 2.34375,-1.8125 c 0.171875,-0.171875 0.265625,-0.375 0.265625,-0.609375 0,-0.234375 -0.09375,-0.4375 -0.265625,-0.609375 -0.15625,-0.15625 -0.375,-0.25 -0.609375,-0.25 -0.25,0 -0.4375,0.09375 -0.609375,0.25 -0.171875,0.171875 -0.265625,0.375 -0.265625,0.609375 0,0.234375 0.09375,0.453125 0.265625,0.609375 0.171875,0.1875 0.359375,0.265625 0.609375,0.265625 0.234375,0 0.453125,-0.078125 0.609375,-0.265625 z M 2.796875,-4.15625 H 8.3125 L 7.828125,-6.09375 C 7.828125,-6.125 7.796875,-6.15625 7.75,-6.1875 7.703125,-6.21875 7.65625,-6.234375 7.640625,-6.25 H 3.46875 C 3.4375,-6.234375 3.40625,-6.21875 3.359375,-6.1875 3.3125,-6.15625 3.296875,-6.125 3.28125,-6.09375 Z m 7.1875,2.34375 c 0.171875,-0.171875 0.25,-0.375 0.25,-0.609375 0,-0.234375 -0.07813,-0.4375 -0.25,-0.609375 -0.171875,-0.15625 -0.375,-0.25 -0.609375,-0.25 -0.234375,0 -0.4375,0.09375 -0.609375,0.25 C 8.59375,-2.859375 8.5,-2.65625 8.5,-2.421875 c 0,0.234375 0.09375,0.453125 0.265625,0.609375 0.171875,0.1875 0.375,0.265625 0.609375,0.265625 0.234375,0 0.4375,-0.078125 0.609375,-0.265625 z m 1.125,-1.125 v 2.078125 c 0,0.0625 -0.01563,0.09375 -0.04687,0.125 -0.03125,0.03125 -0.07813,0.046875 -0.125,0.046875 H 10.40625 V 0 c 0,0.296875 -0.09375,0.546875 -0.296875,0.75 C 9.90625,0.9375 9.65625,1.046875 9.359375,1.046875 9.078125,1.046875 8.828125,0.9375 8.640625,0.75 8.421875,0.546875 8.328125,0.296875 8.328125,0 V -0.6875 H 2.78125 V 0 c 0,0.296875 -0.109375,0.546875 -0.3125,0.75 C 2.265625,0.9375 2.015625,1.046875 1.734375,1.046875 1.453125,1.046875 1.203125,0.9375 1,0.75 0.796875,0.546875 0.6875,0.296875 0.6875,0 V -0.6875 H 0.171875 c -0.046875,0 -0.09375,-0.015625 -0.125,-0.046875 C 0.015625,-0.765625 0,-0.796875 0,-0.859375 V -2.9375 C 0,-3.28125 0.125,-3.5625 0.359375,-3.796875 0.59375,-4.03125 0.875,-4.15625 1.21875,-4.15625 H 1.359375 L 1.9375,-6.4375 C 2.015625,-6.765625 2.203125,-7.046875 2.5,-7.28125 2.796875,-7.5 3.125,-7.625 3.46875,-7.640625 H 7.640625 C 8,-7.625 8.3125,-7.5 8.609375,-7.28125 c 0.296875,0.234375 0.484375,0.515625 0.5625,0.84375 l 0.5625,2.28125 h 0.15625 c 0.34375,0 0.625,0.125 0.859375,0.359375 0.25,0.234375 0.359375,0.515625 0.359375,0.859375 z m 0,0"
         style="stroke:none" />
    </g>
  </g>
</svg>
