<?xml version="1.0" encoding="UTF-8" standalone="no"?>
<!-- Created with Inkscape (http://www.inkscape.org/) -->

<svg
   xmlns:dc="http://purl.org/dc/elements/1.1/"
   xmlns:cc="http://creativecommons.org/ns#"
   xmlns:rdf="http://www.w3.org/1999/02/22-rdf-syntax-ns#"
   xmlns:svg="http://www.w3.org/2000/svg"
   xmlns="http://www.w3.org/2000/svg"
   xmlns:sodipodi="http://sodipodi.sourceforge.net/DTD/sodipodi-0.dtd"
   xmlns:inkscape="http://www.inkscape.org/namespaces/inkscape"
   width="210mm"
   height="297mm"
   viewBox="0 0 210 297"
   version="1.1"
   id="svg13095"
   inkscape:version="0.91+devel "
   sodipodi:docname="fa-flag-checkered.svg">
  <defs
     id="defs13089" />
  <sodipodi:namedview
     id="base"
     pagecolor="#ffffff"
     bordercolor="#666666"
     borderopacity="1.0"
     inkscape:pageopacity="0.0"
     inkscape:pageshadow="2"
     inkscape:zoom="0.35"
     inkscape:cx="400"
     inkscape:cy="560"
     inkscape:document-units="mm"
     inkscape:current-layer="layer1"
     showgrid="false"
     inkscape:window-width="1920"
     inkscape:window-height="1087"
     inkscape:window-x="0"
     inkscape:window-y="33"
     inkscape:window-maximized="1" />
  <metadata
     id="metadata13092">
    <rdf:RDF>
      <cc:Work
         rdf:about="">
        <dc:format>image/svg+xml</dc:format>
        <dc:type
           rdf:resource="http://purl.org/dc/dcmitype/StillImage" />
        <dc:title></dc:title>
      </cc:Work>
    </rdf:RDF>
  </metadata>
  <g
     inkscape:label="Layer 1"
     inkscape:groupmode="layer"
     id="layer1">
    <g
       transform="matrix(0.35277777,0,0,0.35277777,1.5624358,10.720266)"
       style="fill:#000000;fill-opacity:1"
       id="g6129">
      <g
         id="use6127"
         transform="matrix(0.26458333,0,0,0.26458333,309.23987,379.56018)">
        <path
           inkscape:connector-curvature="0"
           id="path13107"
           d="M 4.5,-2.90625 V -3.9375 c -0.640625,0.046875 -1.328125,0.265625 -2.078125,0.625 v 1 c 0.75,-0.328125 1.4375,-0.53125 2.078125,-0.59375 z m 0,-2.265625 v -1.0625 C 3.890625,-6.203125 3.1875,-5.96875 2.421875,-5.5625 v 1.03125 C 3.203125,-4.921875 3.90625,-5.140625 4.5,-5.171875 Z m 4.515625,2.515625 v -1 c -0.84375,0.421875 -1.53125,0.546875 -2.078125,0.390625 v -1.21875 C 6.875,-4.5 6.796875,-4.53125 6.71875,-4.5625 c 0,0 -0.0625,-0.03125 -0.15625,-0.09375 C 6.453125,-4.703125 6.390625,-4.734375 6.359375,-4.75 6.34375,-4.75 6.28125,-4.78125 6.1875,-4.828125 6.109375,-4.859375 6.03125,-4.890625 6.015625,-4.90625 5.96875,-4.921875 5.921875,-4.9375 5.828125,-4.984375 5.75,-5.015625 5.671875,-5.03125 5.625,-5.046875 5.59375,-5.0625 5.53125,-5.078125 5.4375,-5.09375 5.375,-5.109375 5.296875,-5.125 5.234375,-5.140625 c -0.0625,0 -0.140625,0 -0.21875,-0.015625 -0.078125,0 -0.15625,-0.015625 -0.234375,-0.015625 -0.078125,0 -0.171875,0.015625 -0.28125,0.015625 v 1.203125 h 0.109375 c 0.375,0 0.71875,0.046875 1.046875,0.15625 0.34375,0.109375 0.6875,0.25 1.0625,0.4375 C 6.796875,-3.3125 6.875,-3.28125 6.9375,-3.265625 V -2.25 c 0.15625,0.0625 0.328125,0.09375 0.5,0.09375 0.4375,0 0.96875,-0.15625 1.578125,-0.5 z m 0,-2.328125 V -6 C 8.40625,-5.65625 7.859375,-5.5 7.359375,-5.5 7.203125,-5.5 7.0625,-5.515625 6.9375,-5.546875 v 1.0625 c 0.546875,0.15625 1.234375,0 2.078125,-0.5 z M 1.734375,-6.9375 c 0,0.140625 -0.03125,0.25 -0.09375,0.359375 -0.0625,0.09375 -0.15625,0.1875 -0.25,0.234375 v 6.875 C 1.390625,0.578125 1.375,0.625 1.34375,0.65625 1.3125,0.6875 1.265625,0.703125 1.21875,0.703125 H 0.859375 C 0.8125,0.703125 0.765625,0.6875 0.75,0.65625 0.703125,0.625 0.6875,0.578125 0.6875,0.53125 v -6.875 C 0.578125,-6.390625 0.5,-6.484375 0.4375,-6.578125 0.390625,-6.6875 0.34375,-6.796875 0.34375,-6.9375 c 0,-0.1875 0.0625,-0.34375 0.203125,-0.484375 C 0.6875,-7.5625 0.84375,-7.625 1.046875,-7.625 c 0.1875,0 0.34375,0.0625 0.484375,0.203125 C 1.671875,-7.28125 1.734375,-7.125 1.734375,-6.9375 Z m 7.984375,0.34375 v 4.140625 c 0,0.15625 -0.0625,0.25 -0.203125,0.3125 C 9.5,-2.109375 9.46875,-2.09375 9.4375,-2.09375 c -0.796875,0.421875 -1.453125,0.625 -2,0.625 -0.328125,0 -0.609375,-0.0625 -0.859375,-0.1875 l -0.15625,-0.078125 c -0.234375,-0.109375 -0.40625,-0.1875 -0.53125,-0.25 -0.125,-0.0625 -0.28125,-0.109375 -0.484375,-0.15625 C 5.203125,-2.1875 4.984375,-2.21875 4.78125,-2.234375 4.40625,-2.21875 3.984375,-2.140625 3.5,-1.984375 3.015625,-1.8125 2.609375,-1.625 2.25,-1.4375 2.203125,-1.390625 2.140625,-1.375 2.078125,-1.390625 2.015625,-1.375 1.96875,-1.390625 1.90625,-1.4375 1.796875,-1.484375 1.734375,-1.59375 1.734375,-1.734375 v -4.03125 c 0,-0.109375 0.0625,-0.203125 0.15625,-0.28125 C 2.03125,-6.125 2.171875,-6.203125 2.328125,-6.28125 2.484375,-6.359375 2.6875,-6.453125 2.9375,-6.5625 3.203125,-6.671875 3.484375,-6.75 3.78125,-6.828125 4.078125,-6.890625 4.34375,-6.9375 4.609375,-6.9375 5.015625,-6.9375 5.40625,-6.875 5.75,-6.765625 6.09375,-6.65625 6.46875,-6.5 6.875,-6.3125 c 0.140625,0.078125 0.3125,0.125 0.484375,0.109375 0.4375,0.015625 1.015625,-0.1875 1.6875,-0.609375 0.078125,-0.03125 0.125,-0.0625 0.15625,-0.09375 0.125,-0.046875 0.234375,-0.046875 0.34375,0.015625 0.125,0.078125 0.171875,0.1875 0.171875,0.296875 z m 0,0"
           style="stroke:none" />
      </g>
    </g>
  </g>
</svg>
