<?xml version="1.0" encoding="UTF-8" standalone="no"?>
<!-- Created with Inkscape (http://www.inkscape.org/) -->

<svg
   xmlns:dc="http://purl.org/dc/elements/1.1/"
   xmlns:cc="http://creativecommons.org/ns#"
   xmlns:rdf="http://www.w3.org/1999/02/22-rdf-syntax-ns#"
   xmlns:svg="http://www.w3.org/2000/svg"
   xmlns="http://www.w3.org/2000/svg"
   xmlns:sodipodi="http://sodipodi.sourceforge.net/DTD/sodipodi-0.dtd"
   xmlns:inkscape="http://www.inkscape.org/namespaces/inkscape"
   width="210mm"
   height="297mm"
   viewBox="0 0 210 297"
   version="1.1"
   id="svg13036"
   inkscape:version="0.91+devel "
   sodipodi:docname="fa-github.svg">
  <defs
     id="defs13030" />
  <sodipodi:namedview
     id="base"
     pagecolor="#ffffff"
     bordercolor="#666666"
     borderopacity="1.0"
     inkscape:pageopacity="0.0"
     inkscape:pageshadow="2"
     inkscape:zoom="0.35"
     inkscape:cx="400"
     inkscape:cy="560"
     inkscape:document-units="mm"
     inkscape:current-layer="layer1"
     showgrid="false"
     inkscape:window-width="1920"
     inkscape:window-height="1087"
     inkscape:window-x="0"
     inkscape:window-y="33"
     inkscape:window-maximized="1" />
  <metadata
     id="metadata13033">
    <rdf:RDF>
      <cc:Work
         rdf:about="">
        <dc:format>image/svg+xml</dc:format>
        <dc:type
           rdf:resource="http://purl.org/dc/dcmitype/StillImage" />
        <dc:title></dc:title>
      </cc:Work>
    </rdf:RDF>
  </metadata>
  <g
     inkscape:label="Layer 1"
     inkscape:groupmode="layer"
     id="layer1">
    <g
       transform="matrix(0.35277777,0,0,0.35277777,87.834005,-91.734748)"
       style="fill:#000000;fill-opacity:1"
       id="g9205">
      <g
         id="use9203"
         transform="matrix(0.26458333,0,0,0.26458333,49.919979,601.44012)">
        <path
           inkscape:connector-curvature="0"
           id="path13048"
           d="m 8.328125,-3.46875 c 0,0.921875 -0.265625,1.734375 -0.796875,2.453125 -0.515625,0.734375 -1.203125,1.234375 -2.046875,1.5 C 5.390625,0.5 5.3125,0.5 5.265625,0.453125 5.21875,0.40625 5.203125,0.359375 5.203125,0.28125 v -1.140625 c 0,-0.34375 -0.09375,-0.609375 -0.28125,-0.765625 C 5.125,-1.640625 5.3125,-1.6875 5.46875,-1.71875 5.640625,-1.765625 5.8125,-1.828125 5.984375,-1.9375 c 0.1875,-0.078125 0.328125,-0.203125 0.4375,-0.359375 0.125,-0.125 0.21875,-0.328125 0.296875,-0.5625 C 6.78125,-3.09375 6.8125,-3.375 6.8125,-3.6875 c 0,-0.421875 -0.140625,-0.796875 -0.421875,-1.109375 0.140625,-0.328125 0.125,-0.6875 -0.046875,-1.109375 -0.09375,-0.03125 -0.234375,0 -0.4375,0.0625 -0.1875,0.078125 -0.34375,0.15625 -0.5,0.234375 l -0.203125,0.125 C 4.875,-5.5625 4.515625,-5.625 4.15625,-5.625 3.796875,-5.625 3.453125,-5.5625 3.125,-5.484375 3.0625,-5.515625 3,-5.5625 2.890625,-5.625 2.796875,-5.671875 2.640625,-5.75 2.4375,-5.828125 2.234375,-5.90625 2.078125,-5.9375 1.96875,-5.90625 1.8125,-5.484375 1.796875,-5.125 1.9375,-4.796875 1.65625,-4.484375 1.5,-4.109375 1.5,-3.6875 c 0,0.3125 0.046875,0.59375 0.125,0.828125 0.078125,0.234375 0.15625,0.421875 0.28125,0.5625 0.109375,0.15625 0.265625,0.28125 0.4375,0.359375 0.171875,0.109375 0.34375,0.171875 0.5,0.21875 0.171875,0.03125 0.359375,0.078125 0.5625,0.09375 -0.140625,0.140625 -0.234375,0.3125 -0.265625,0.546875 -0.078125,0.046875 -0.15625,0.078125 -0.25,0.09375 -0.09375,0.03125 -0.1875,0.03125 -0.296875,0.03125 -0.125,0 -0.234375,-0.03125 -0.359375,-0.125 -0.125,-0.078125 -0.21875,-0.1875 -0.3125,-0.34375 C 1.859375,-1.53125 1.765625,-1.625 1.671875,-1.6875 1.5625,-1.765625 1.46875,-1.8125 1.390625,-1.828125 L 1.296875,-1.84375 c -0.078125,0 -0.140625,0.015625 -0.15625,0.03125 C 1.09375,-1.796875 1.09375,-1.78125 1.09375,-1.75 c 0.03125,0.03125 0.046875,0.046875 0.0625,0.0625 0.015625,0.03125 0.046875,0.0625 0.0625,0.0625 l 0.046875,0.03125 c 0.078125,0.046875 0.15625,0.125 0.234375,0.21875 0.078125,0.09375 0.125,0.1875 0.171875,0.265625 l 0.046875,0.125 c 0.046875,0.140625 0.140625,0.25 0.25,0.34375 0.109375,0.09375 0.234375,0.140625 0.359375,0.15625 0.140625,0.03125 0.25,0.046875 0.375,0.046875 0.109375,0 0.21875,-0.015625 0.296875,-0.03125 l 0.125,-0.015625 c 0,0.140625 0.015625,0.3125 0.015625,0.484375 0,0.171875 0,0.28125 0,0.28125 0,0.078125 -0.03125,0.125 -0.078125,0.171875 C 3.015625,0.5 2.9375,0.5 2.84375,0.484375 2.015625,0.21875 1.328125,-0.28125 0.796875,-1.015625 0.265625,-1.734375 0,-2.546875 0,-3.46875 c 0,-0.75 0.1875,-1.4375 0.5625,-2.09375 0.375,-0.625 0.875,-1.140625 1.515625,-1.515625 C 2.71875,-7.4375 3.40625,-7.625 4.15625,-7.625 c 0.765625,0 1.46875,0.1875 2.09375,0.546875 0.65625,0.375 1.15625,0.890625 1.515625,1.515625 0.375,0.65625 0.5625,1.34375 0.5625,2.09375 z m 0,0"
           style="stroke:none" />
      </g>
    </g>
  </g>
</svg>
