<?xml version="1.0" encoding="UTF-8" standalone="no"?>
<!-- Created with Inkscape (http://www.inkscape.org/) -->

<svg
   xmlns:dc="http://purl.org/dc/elements/1.1/"
   xmlns:cc="http://creativecommons.org/ns#"
   xmlns:rdf="http://www.w3.org/1999/02/22-rdf-syntax-ns#"
   xmlns:svg="http://www.w3.org/2000/svg"
   xmlns="http://www.w3.org/2000/svg"
   xmlns:sodipodi="http://sodipodi.sourceforge.net/DTD/sodipodi-0.dtd"
   xmlns:inkscape="http://www.inkscape.org/namespaces/inkscape"
   width="210mm"
   height="297mm"
   viewBox="0 0 210 297"
   version="1.1"
   id="svg12733"
   inkscape:version="0.91+devel "
   sodipodi:docname="fa-location-arrow.svg">
  <defs
     id="defs12727" />
  <sodipodi:namedview
     id="base"
     pagecolor="#ffffff"
     bordercolor="#666666"
     borderopacity="1.0"
     inkscape:pageopacity="0.0"
     inkscape:pageshadow="2"
     inkscape:zoom="0.35"
     inkscape:cx="400"
     inkscape:cy="560"
     inkscape:document-units="mm"
     inkscape:current-layer="layer1"
     showgrid="false"
     inkscape:window-width="1920"
     inkscape:window-height="1152"
     inkscape:window-x="1920"
     inkscape:window-y="33"
     inkscape:window-maximized="1" />
  <metadata
     id="metadata12730">
    <rdf:RDF>
      <cc:Work
         rdf:about="">
        <dc:format>image/svg+xml</dc:format>
        <dc:type
           rdf:resource="http://purl.org/dc/dcmitype/StillImage" />
        <dc:title></dc:title>
      </cc:Work>
    </rdf:RDF>
  </metadata>
  <g
     inkscape:label="Layer 1"
     inkscape:groupmode="layer"
     id="layer1">
    <g
       transform="matrix(0.35277777,0,0,0.35277777,78.709994,-24.648049)"
       style="fill:#000000;fill-opacity:1"
       id="g7354">
      <g
         id="use7352"
         transform="matrix(0.26458333,0,0,0.26458333,50.159981,490.44016)">
        <path
           inkscape:connector-curvature="0"
           id="path12745"
           d="M 7.59375,-6.4375 4.125,0.515625 c -0.0625,0.125 -0.15625,0.1875 -0.3125,0.1875 -0.015625,0 -0.03125,0 -0.078125,-0.015625 C 3.65625,0.671875 3.59375,0.625 3.546875,0.5625 3.5,0.515625 3.46875,0.4375 3.46875,0.359375 V -2.78125 h -3.125 c -0.078125,0.015625 -0.15625,0 -0.203125,-0.0625 C 0.078125,-2.890625 0.03125,-2.9375 0,-3.03125 0,-3.109375 0,-3.1875 0.03125,-3.265625 c 0.03125,-0.0625 0.078125,-0.125 0.15625,-0.15625 L 7.125,-6.90625 c 0.046875,-0.015625 0.109375,-0.03125 0.15625,-0.03125 0.109375,0 0.1875,0.03125 0.25,0.09375 0.0625,0.0625 0.09375,0.140625 0.109375,0.203125 0,0.078125 0,0.15625 -0.046875,0.203125 z m 0,0"
           style="stroke:none" />
      </g>
    </g>
  </g>
</svg>
