<?xml version="1.0" encoding="UTF-8" standalone="no"?>
<!-- Created with Inkscape (http://www.inkscape.org/) -->

<svg
   xmlns:dc="http://purl.org/dc/elements/1.1/"
   xmlns:cc="http://creativecommons.org/ns#"
   xmlns:rdf="http://www.w3.org/1999/02/22-rdf-syntax-ns#"
   xmlns:svg="http://www.w3.org/2000/svg"
   xmlns="http://www.w3.org/2000/svg"
   xmlns:sodipodi="http://sodipodi.sourceforge.net/DTD/sodipodi-0.dtd"
   xmlns:inkscape="http://www.inkscape.org/namespaces/inkscape"
   width="210mm"
   height="297mm"
   viewBox="0 0 210 297"
   version="1.1"
   id="svg63235"
   inkscape:version="0.91+devel "
   sodipodi:docname="fa-rotate-right.svg">
  <defs
     id="defs63229" />
  <sodipodi:namedview
     id="base"
     pagecolor="#ffffff"
     bordercolor="#666666"
     borderopacity="1.0"
     inkscape:pageopacity="0.0"
     inkscape:pageshadow="2"
     inkscape:zoom="0.35"
     inkscape:cx="400"
     inkscape:cy="560"
     inkscape:document-units="mm"
     inkscape:current-layer="layer1"
     showgrid="false"
     inkscape:window-width="1920"
     inkscape:window-height="1152"
     inkscape:window-x="1920"
     inkscape:window-y="33"
     inkscape:window-maximized="1" />
  <metadata
     id="metadata63232">
    <rdf:RDF>
      <cc:Work
         rdf:about="">
        <dc:format>image/svg+xml</dc:format>
        <dc:type
           rdf:resource="http://purl.org/dc/dcmitype/StillImage" />
        <dc:title></dc:title>
      </cc:Work>
    </rdf:RDF>
  </metadata>
  <g
     inkscape:label="Layer 1"
     inkscape:groupmode="layer"
     id="layer1">
    <g
       transform="matrix(0.35277777,0,0,0.35277777,9.7048545,-100.48865)"
       style="fill:#000000;fill-opacity:1"
       id="g33255">
      <g
         id="use33253"
         transform="matrix(0.26458333,0,0,0.26458333,309.95987,559.80011)">
        <path
           inkscape:connector-curvature="0"
           id="path63247"
           d="M 8.328125,-6.9375 V -4.5 c 0,0.09375 -0.03125,0.171875 -0.09375,0.25 -0.078125,0.0625 -0.15625,0.09375 -0.25,0.09375 h -2.4375 c -0.140625,0 -0.25,-0.078125 -0.3125,-0.21875 -0.0625,-0.140625 -0.03125,-0.25 0.078125,-0.375 L 6.046875,-5.5 C 5.515625,-6 4.890625,-6.234375 4.15625,-6.25 3.78125,-6.234375 3.4375,-6.171875 3.09375,-6.015625 2.75,-5.875 2.453125,-5.671875 2.203125,-5.421875 c -0.25,0.25 -0.453125,0.546875 -0.59375,0.875 -0.140625,0.359375 -0.21875,0.703125 -0.21875,1.078125 0,0.390625 0.078125,0.75 0.21875,1.078125 C 1.75,-2.046875 1.953125,-1.75 2.203125,-1.5 c 0.25,0.265625 0.546875,0.453125 0.890625,0.59375 0.34375,0.140625 0.6875,0.21875 1.0625,0.21875 0.4375,0 0.84375,-0.078125 1.234375,-0.28125 0.375,-0.1875 0.703125,-0.453125 0.953125,-0.796875 0.046875,-0.03125 0.078125,-0.0625 0.140625,-0.078125 0.046875,0.015625 0.09375,0.03125 0.125,0.0625 l 0.75,0.75 C 7.390625,-1 7.40625,-0.96875 7.40625,-0.921875 c 0,0.046875 -0.015625,0.09375 -0.046875,0.125 C 6.96875,-0.3125 6.5,0.046875 5.9375,0.3125 5.375,0.5625 4.78125,0.703125 4.15625,0.703125 3.59375,0.703125 3.0625,0.59375 2.546875,0.375 2.046875,0.15625 1.59375,-0.140625 1.21875,-0.515625 0.84375,-0.890625 0.546875,-1.328125 0.328125,-1.84375 0.109375,-2.359375 0,-2.890625 0,-3.46875 0,-4.015625 0.109375,-4.5625 0.328125,-5.078125 0.546875,-5.59375 0.84375,-6.03125 1.21875,-6.40625 1.59375,-6.78125 2.046875,-7.078125 2.546875,-7.296875 3.0625,-7.515625 3.59375,-7.625 4.15625,-7.640625 c 0.546875,0.015625 1.0625,0.125 1.546875,0.3125 0.5,0.203125 0.9375,0.484375 1.328125,0.84375 L 7.734375,-7.1875 c 0.109375,-0.09375 0.234375,-0.125 0.375,-0.0625 0.140625,0.0625 0.21875,0.15625 0.21875,0.3125 z m 0,0"
           style="stroke:none" />
      </g>
    </g>
  </g>
</svg>
