<?xml version="1.0" encoding="UTF-8" standalone="no"?>
<!-- Created with Inkscape (http://www.inkscape.org/) -->

<svg
   xmlns:dc="http://purl.org/dc/elements/1.1/"
   xmlns:cc="http://creativecommons.org/ns#"
   xmlns:rdf="http://www.w3.org/1999/02/22-rdf-syntax-ns#"
   xmlns:svg="http://www.w3.org/2000/svg"
   xmlns="http://www.w3.org/2000/svg"
   xmlns:sodipodi="http://sodipodi.sourceforge.net/DTD/sodipodi-0.dtd"
   xmlns:inkscape="http://www.inkscape.org/namespaces/inkscape"
   width="210mm"
   height="297mm"
   viewBox="0 0 210 297"
   version="1.1"
   id="svg63294"
   inkscape:version="0.91+devel "
   sodipodi:docname="fa-road.svg">
  <defs
     id="defs63288" />
  <sodipodi:namedview
     id="base"
     pagecolor="#ffffff"
     bordercolor="#666666"
     borderopacity="1.0"
     inkscape:pageopacity="0.0"
     inkscape:pageshadow="2"
     inkscape:zoom="0.35"
     inkscape:cx="400"
     inkscape:cy="560"
     inkscape:document-units="mm"
     inkscape:current-layer="layer1"
     showgrid="false"
     inkscape:window-width="1920"
     inkscape:window-height="1152"
     inkscape:window-x="1920"
     inkscape:window-y="33"
     inkscape:window-maximized="1" />
  <metadata
     id="metadata63291">
    <rdf:RDF>
      <cc:Work
         rdf:about="">
        <dc:format>image/svg+xml</dc:format>
        <dc:type
           rdf:resource="http://purl.org/dc/dcmitype/StillImage" />
        <dc:title></dc:title>
      </cc:Work>
    </rdf:RDF>
  </metadata>
  <g
     inkscape:label="Layer 1"
     inkscape:groupmode="layer"
     id="layer1">
    <g
       transform="matrix(0.35277777,0,0,0.35277777,87.404399,-98.644125)"
       style="fill:#000000;fill-opacity:1"
       id="g32967">
      <g
         id="use32965"
         transform="matrix(0.26458333,0,0,0.26458333,48.719982,546.00012)">
        <path
           inkscape:connector-curvature="0"
           id="path63306"
           d="M 6.015625,-2.921875 V -2.9375 l -0.125,-1.75 c 0,-0.03125 -0.015625,-0.078125 -0.0625,-0.109375 -0.03125,-0.03125 -0.0625,-0.0625 -0.125,-0.0625 h -1 c -0.046875,0 -0.09375,0.03125 -0.125,0.0625 -0.03125,0.03125 -0.0625,0.078125 -0.0625,0.109375 l -0.125,1.75 v 0.015625 c 0,0.046875 0.015625,0.078125 0.046875,0.109375 0.03125,0.03125 0.0625,0.046875 0.109375,0.03125 h 1.3125 c 0.046875,0.015625 0.09375,0 0.125,-0.03125 0.03125,-0.03125 0.046875,-0.0625 0.03125,-0.109375 z m 4.125,2.53125 C 10.140625,-0.125 10.0625,0 9.890625,0 h -3.8125 C 6.125,0 6.171875,0 6.1875,-0.046875 c 0.03125,-0.03125 0.046875,-0.0625 0.046875,-0.125 L 6.125,-1.5625 C 6.125,-1.59375 6.109375,-1.625 6.0625,-1.671875 6.03125,-1.703125 6,-1.71875 5.9375,-1.734375 H 4.46875 C 4.421875,-1.71875 4.375,-1.703125 4.34375,-1.671875 4.3125,-1.625 4.296875,-1.59375 4.28125,-1.5625 l -0.109375,1.390625 c 0,0.0625 0.015625,0.09375 0.046875,0.125 C 4.25,0 4.296875,0 4.328125,0 h -3.8125 c -0.15625,0 -0.25,-0.125 -0.25,-0.390625 0,-0.1875 0.046875,-0.390625 0.140625,-0.625 L 2.671875,-6.6875 C 2.703125,-6.734375 2.75,-6.796875 2.8125,-6.859375 2.875,-6.90625 2.9375,-6.9375 3.015625,-6.9375 h 1.84375 c -0.046875,0 -0.09375,0.015625 -0.125,0.0625 -0.03125,0.03125 -0.046875,0.0625 -0.0625,0.109375 L 4.59375,-5.71875 c 0,0.0625 0.015625,0.09375 0.046875,0.125 0.015625,0.03125 0.0625,0.046875 0.109375,0.046875 h 0.90625 c 0.046875,0 0.09375,-0.015625 0.125,-0.046875 0.015625,-0.03125 0.03125,-0.0625 0.03125,-0.125 L 5.734375,-6.765625 c 0,-0.046875 -0.015625,-0.078125 -0.0625,-0.109375 -0.03125,-0.046875 -0.0625,-0.0625 -0.125,-0.0625 h 1.84375 c 0.078125,0 0.140625,0.03125 0.203125,0.078125 0.0625,0.0625 0.109375,0.125 0.140625,0.171875 L 10,-1.015625 c 0.09375,0.234375 0.140625,0.4375 0.140625,0.625 z m 0,0"
           style="stroke:none" />
      </g>
    </g>
  </g>
</svg>
