<?xml version="1.0" encoding="UTF-8" standalone="no"?>
<svg
   xmlns:dc="http://purl.org/dc/elements/1.1/"
   xmlns:cc="http://creativecommons.org/ns#"
   xmlns:rdf="http://www.w3.org/1999/02/22-rdf-syntax-ns#"
   xmlns:svg="http://www.w3.org/2000/svg"
   xmlns="http://www.w3.org/2000/svg"
   xmlns:sodipodi="http://sodipodi.sourceforge.net/DTD/sodipodi-0.dtd"
   xmlns:inkscape="http://www.inkscape.org/namespaces/inkscape"
   version="1.0"
   width="210mm"
   height="297mm"
   viewBox="0 0 595.27559 841.88976"
   preserveAspectRatio="xMidYMid meet"
   id="svg8"
   inkscape:version="0.91+devel "
   sodipodi:docname="kart.svg">
  <metadata
     id="metadata7">
    <rdf:RDF>
      <cc:Work
         rdf:about="">
        <dc:format>image/svg+xml</dc:format>
        <dc:type
           rdf:resource="http://purl.org/dc/dcmitype/StillImage" />
        <dc:title></dc:title>
      </cc:Work>
    </rdf:RDF>
  </metadata>
  <defs
     id="defs12" />
  <sodipodi:namedview
     pagecolor="#ffffff"
     bordercolor="#666666"
     borderopacity="1"
     objecttolerance="10"
     gridtolerance="10"
     guidetolerance="10"
     inkscape:pageopacity="0"
     inkscape:pageshadow="2"
     inkscape:window-width="1144"
     inkscape:window-height="1104"
     id="namedview10"
     showgrid="false"
     inkscape:zoom="2.765625"
     inkscape:cx="169.85421"
     inkscape:cy="160.53734"
     inkscape:window-x="3850"
     inkscape:window-y="17"
     inkscape:window-maximized="0"
     inkscape:current-layer="g6"
     units="mm"
     inkscape:document-units="mm" />
  <g
     transform="matrix(0.1,0,0,-0.1,0,841.88975)"
     id="g6"
     style="fill:#000000;stroke:none">
    <path
       d="m 1195.9883,1652.486 c -0.8247,-0.5905 -4.9482,-4.6707 -9.1232,-9.1266 -7.9893,-8.4287 -8.5047,-9.2876 -6.8038,-11.8109 0.567,-0.859 1.2886,-1.1811 2.5772,-1.1811 3.8435,1.0549 4.9532,3.1161 7.9893,6.1202 l 6.0306,-6.2812 5.979,-6.2276 -3.4534,-1.6643 c -5.0513,-2.3621 -11.0819,-3.758 -18.2464,-4.1338 -12.6798,-0.6442 -24.174,2.4159 -31.6479,8.4824 -1.804,1.5032 -1.8555,1.6106 -2.1648,5.9591 -0.4123,7.0866 5.1832,13.6444 1.3174,15.7382 -3.3224,1.0828 -3.9444,-0.5551 -5.4566,-4.4823 -2.1944,-5.4765 -2.8472,-9.8639 -5.8751,-13.9411 l -4.4179,-1.2875 c -7.2799,-2.6516 -6.8256,-5.4414 -7.4747,-10.2094 -1.6101,-4.8417 -1.6947,-15.2969 -4.0493,-15.2341 -2.7833,-0.054 -3.8806,-0.6688 -3.8806,-6.0374 0,-4.2412 0.4054,-4.4887 1.9001,-5.1329 0.4639,-0.1611 2.4226,-0.3221 4.3297,-0.3221 h 3.505 l 0.8762,-2.3622 c 0.9793,-2.6306 3.6596,-5.7981 6.0822,-7.0865 0.8762,-0.4832 2.938,-1.0201 4.6389,-1.1274 5.4636,-0.5369 10.5664,2.6306 12.7313,7.8918 l 1.1339,2.6843 h 30.3593 30.3592 l 1.0824,-2.5232 c 1.4432,-3.3823 3.2988,-5.3686 6.443,-6.9255 6.4429,-3.1675 14.5353,0.161 17.0609,7.0865 l 0.8763,2.3622 h 3.5565 c 3.0926,0 3.7111,0.161 4.7935,1.3421 1.1855,1.1811 1.2886,1.6643 1.2886,6.6034 0,4.8317 -0.1031,5.3686 -1.1855,6.4423 -0.7216,0.7516 -1.8555,1.1811 -2.9895,1.1811 -1.4432,0 -2.0102,0.3758 -3.2988,2.2011 -3.5565,5.0465 -14.8446,12.133 -27.0089,16.9111 l -5.9791,2.3622 -6.1337,6.4423 -6.1852,6.3886 c 1.6616,2.3446 5.7979,5.0259 5.876,7.9455 0,3.2211 -2.7318,4.6707 -5.4121,2.9527 z m -53.09,-55.1354 c 2.7318,-2.8453 0.7732,-7.7844 -3.0926,-7.7844 -2.5772,0 -4.3812,1.9326 -4.3812,4.778 0,1.6643 0.3093,2.3622 1.3401,3.2211 1.9071,1.5569 4.5874,1.4496 6.1337,-0.2147 z m 86.0264,0.2147 c 1.8556,-1.5032 1.9071,-4.778 0.052,-6.657 -2.7318,-2.899 -7.4738,-0.8053 -7.4738,3.3285 0,3.8654 4.3812,5.8518 7.4223,3.3285 z"
       id="path4"
       inkscape:connector-curvature="0"
       sodipodi:nodetypes="cccccccccccccccccscsccccccccccccscscsccccccccssccccsc"
       style="stroke-width:0.05260388" />
  </g>
</svg>
