<?xml version="1.0" encoding="UTF-8" standalone="no"?>
<svg
   xmlns:dc="http://purl.org/dc/elements/1.1/"
   xmlns:cc="http://creativecommons.org/ns#"
   xmlns:rdf="http://www.w3.org/1999/02/22-rdf-syntax-ns#"
   xmlns:svg="http://www.w3.org/2000/svg"
   xmlns="http://www.w3.org/2000/svg"
   xmlns:sodipodi="http://sodipodi.sourceforge.net/DTD/sodipodi-0.dtd"
   xmlns:inkscape="http://www.inkscape.org/namespaces/inkscape"
   version="1.0"
   width="2731.000000pt"
   height="2048.000000pt"
   viewBox="0 0 2731.000000 2048.000000"
   preserveAspectRatio="xMidYMid meet"
   id="svg4467"
   inkscape:version="0.91+devel "
   sodipodi:docname="project-cars.svg">
  <defs
     id="defs4471" />
  <sodipodi:namedview
     pagecolor="#ffffff"
     bordercolor="#666666"
     borderopacity="1"
     objecttolerance="10"
     gridtolerance="10"
     guidetolerance="10"
     inkscape:pageopacity="0"
     inkscape:pageshadow="2"
     inkscape:window-width="1132"
     inkscape:window-height="1043"
     id="namedview4469"
     showgrid="false"
     inkscape:zoom="0.48889805"
     inkscape:cx="2150.1935"
     inkscape:cy="1708.7773"
     inkscape:window-x="3877"
     inkscape:window-y="6"
     inkscape:window-maximized="0"
     inkscape:current-layer="g4465" />
  <metadata
     id="metadata4419">
Created by potrace 1.13, written by Peter Selinger 2001-2015
<rdf:RDF>
  <cc:Work
     rdf:about="">
    <dc:format>image/svg+xml</dc:format>
    <dc:type
       rdf:resource="http://purl.org/dc/dcmitype/StillImage" />
  </cc:Work>
</rdf:RDF>
</metadata>
  <g
     transform="translate(0.000000,2048.000000) scale(0.100000,-0.100000)"
     fill="#000000"
     stroke="none"
     id="g4465">
    <path
       d="M7214 16331 c-2 -2 -4 -481 -4 -1063 0 -1051 0 -1058 20 -1058 20 0 20 7 20 479 0 301 4 482 10 486 5 3 191 6 412 5 222 0 443 5 492 10 398 46 600 313 536 708 -33 199 -151 331 -363 404 -60 21 -83 22 -590 27 -291 4 -531 4 -533 2z m1066 -61 c78 -17 188 -73 239 -122 106 -103 144 -204 145 -383 1 -102 -3 -129 -22 -180 -54 -139 -155 -248 -272 -295 -19 -7 -40 -17 -45 -21 -6 -4 -48 -15 -95 -23 -71 -14 -158 -16 -530 -14 l-445 3 -3 505 c-1 278 0 516 3 529 l6 23 482 -5 c314 -3 501 -9 537 -17z"
       id="path4421" />
    <path
       d="M11853 16330 c-33 -5 -82 -16 -107 -24 -26 -9 -52 -16 -59 -16 -7 0 -55 -20 -108 -43 -306 -138 -515 -390 -602 -726 -32 -124 -32 -368 0 -491 41 -156 104 -289 188 -400 58 -76 190 -200 261 -246 173 -110 390 -174 593 -174 79 0 269 26 285 39 6 5 27 12 46 16 19 4 73 25 119 47 262 124 461 347 556 622 38 111 49 190 49 341 0 201 -28 323 -113 490 -108 210 -280 376 -494 475 -76 35 -111 47 -237 81 -50 13 -303 20 -377 9z m353 -50 c412 -83 728 -397 815 -810 15 -67 19 -255 8 -339 -18 -140 -78 -296 -165 -426 -60 -90 -135 -167 -270 -274 -25 -20 -153 -88 -204 -108 -132 -53 -207 -67 -370 -67 -189 -1 -277 19 -446 100 -291 139 -507 416 -565 724 -16 83 -16 306 0 390 36 193 152 403 298 541 152 143 340 241 519 269 38 6 70 13 73 16 13 12 219 2 307 -16z"
       id="path4423" />
    <path
       d="M17583 16330 c-33 -5 -82 -16 -107 -24 -26 -9 -51 -16 -57 -16 -41 0 -253 -114 -333 -178 -129 -104 -207 -198 -284 -343 -86 -162 -116 -291 -116 -494 0 -198 21 -296 102 -464 153 -319 447 -537 792 -587 274 -39 525 14 755 161 74 47 201 168 266 254 49 63 151 260 164 314 6 24 4 27 -18 27 -19 0 -27 -7 -32 -27 -16 -64 -84 -199 -136 -269 -145 -196 -348 -337 -576 -400 -103 -28 -295 -41 -388 -26 -73 12 -183 39 -210 51 -202 90 -268 133 -385 251 -172 173 -266 367 -292 606 -34 315 83 633 312 846 77 71 76 71 150 119 166 109 320 158 528 166 343 14 681 -162 877 -457 67 -100 88 -150 63 -150 -7 0 -51 -16 -97 -35 -46 -18 -105 -41 -133 -51 -66 -22 -57 -27 17 -9 33 8 103 23 155 34 52 11 105 23 117 28 l23 8 -31 65 c-103 219 -292 410 -497 502 -37 16 -76 34 -87 39 -11 5 -60 21 -110 34 -101 29 -319 41 -432 25z"
       id="path4425" />
    <path
       d="M9090 15270 c0 -1052 0 -1060 20 -1060 19 0 20 8 22 483 l3 482 470 6 c275 4 489 11 515 17 59 15 70 14 70 0 0 -7 6 -25 14 -39 7 -14 16 -38 20 -54 4 -16 16 -48 27 -72 10 -23 19 -47 19 -53 0 -7 6 -26 14 -43 7 -18 28 -75 46 -127 18 -52 36 -99 40 -105 4 -5 10 -23 14 -40 4 -16 14 -43 21 -60 16 -35 40 -100 62 -170 8 -27 18 -54 23 -60 4 -5 10 -23 14 -38 15 -62 50 -127 68 -127 10 0 18 2 18 5 0 6 -69 196 -79 220 -5 11 -15 38 -22 60 -6 22 -15 45 -19 50 -3 6 -12 30 -19 55 -7 25 -16 50 -21 55 -4 6 -10 24 -14 40 -4 17 -13 44 -21 60 -7 17 -34 91 -60 165 -26 74 -53 149 -60 165 -8 17 -19 48 -25 70 -7 22 -17 46 -23 53 -12 15 -14 14 53 45 116 52 214 149 265 262 62 134 61 355 -2 513 -20 49 -43 82 -92 133 -75 76 -139 112 -261 145 -84 24 -90 24 -592 24 l-508 0 0 -1060z m1080 998 c176 -47 297 -155 351 -313 33 -100 34 -283 1 -369 -55 -142 -155 -250 -272 -295 -19 -7 -48 -19 -65 -26 -67 -29 -190 -36 -620 -33 l-430 3 -3 515 c-1 283 0 521 3 528 8 20 957 11 1035 -10z"
       id="path4427" />
    <path
       d="M14358 16316 c-14 -8 -43 -19 -63 -26 -20 -7 -49 -18 -63 -26 -15 -8 -34 -14 -42 -14 -8 -1 -26 -7 -40 -16 -25 -15 -25 -15 10 -9 19 4 71 15 115 25 44 10 94 20 110 22 l30 3 3 -798 c2 -757 1 -802 -17 -886 -41 -189 -136 -305 -289 -355 -120 -40 -352 -38 -461 4 -126 49 -204 131 -252 266 -17 46 -23 91 -26 207 -5 144 -6 148 -27 145 -19 -3 -21 -10 -24 -83 -4 -105 23 -265 58 -340 81 -179 259 -275 507 -275 328 1 519 143 563 420 6 41 10 379 10 908 l0 842 -37 0 c-21 0 -50 -6 -65 -14z"
       id="path4429" />
    <path
       d="M14980 15270 l0 -1060 710 0 c703 0 710 0 710 20 0 20 -8 20 -687 22 l-688 3 -3 462 -2 463 22 5 c13 3 301 4 641 3 l617 -3 0 22 0 23 -637 2 -638 3 0 525 0 525 676 3 c666 2 677 2 682 22 5 20 -1 20 -699 20 l-704 0 0 -1060z"
       id="path4431" />
    <path
       d="M19120 16310 c0 -19 7 -20 250 -20 l250 0 0 -1040 c0 -1033 0 -1040 20 -1040 20 0 20 7 20 1040 l0 1040 247 2 c227 3 248 4 251 21 3 16 -27 17 -517 17 -514 0 -521 0 -521 -20z"
       id="path4433" />
    <path
       d="M8140 14020 c-409 -69 -728 -307 -898 -670 -41 -89 -87 -226 -97 -295 -4 -22 -10 -53 -15 -70 -4 -16 -11 -53 -13 -80 l-6 -51 107 19 c59 10 163 27 232 38 272 44 246 35 253 81 32 209 165 411 333 510 115 67 180 83 344 83 115 0 157 -4 205 -19 114 -36 212 -99 284 -183 43 -50 111 -177 111 -208 0 -14 6 -16 33 -12 17 3 88 14 157 26 69 11 170 27 225 36 133 20 126 16 109 62 -7 21 -13 45 -14 53 0 8 -9 33 -20 55 -11 22 -19 44 -20 48 -1 24 -99 174 -153 232 -168 185 -377 295 -653 345 -139 25 -354 25 -504 0z"
       id="path4435" />
    <path
       d="M10297 14003 c-15 -36 -74 -193 -104 -278 -7 -22 -18 -49 -23 -60 -16 -36 -60 -151 -60 -159 0 -5 -7 -22 -15 -39 -7 -18 -23 -56 -34 -84 l-19 -53 21 5 c12 2 60 10 107 16 46 6 87 12 90 14 4 2 69 14 146 25 76 12 191 30 254 40 63 10 147 24 185 29 39 6 111 19 162 28 l91 16 -29 81 c-16 45 -33 90 -38 101 -5 11 -20 52 -34 90 -31 84 -74 199 -89 238 l-10 27 -292 0 -292 0 -17 -37z"
       id="path4437" />
    <path
       d="M11942 13839 l0 -201 36 5 c20 3 96 16 167 27 72 12 184 30 250 41 66 11 176 28 245 39 69 11 170 27 225 35 55 9 107 18 116 20 9 3 77 15 150 26 74 11 188 29 254 40 66 11 180 28 254 39 74 11 136 22 138 24 10 9 -135 68 -213 86 -81 19 -122 20 -853 20 l-769 0 0 -201z"
       id="path4439" />
    <path
       d="M15102 14019 c-390 -68 -662 -287 -718 -576 -37 -195 -6 -371 90 -503 142 -196 341 -284 964 -426 129 -29 281 -83 347 -122 136 -82 187 -206 135 -328 -21 -47 -72 -105 -122 -137 -142 -89 -474 -112 -660 -44 -122 45 -228 134 -269 227 -8 16 -17 30 -22 30 -4 0 -59 -20 -123 -45 -63 -25 -117 -45 -120 -45 -3 0 -24 -8 -47 -19 -68 -30 -175 -71 -186 -71 -58 0 72 -189 203 -294 65 -52 234 -139 318 -163 219 -62 335 -77 573 -70 264 8 440 49 620 144 178 93 329 259 364 401 6 23 16 59 21 81 6 21 10 93 10 160 0 219 -55 343 -216 489 -47 42 -103 79 -179 116 -109 55 -156 71 -310 107 -109 26 -337 81 -463 113 -255 65 -365 127 -391 223 -41 146 47 281 219 339 87 30 319 27 420 -5 89 -27 144 -58 186 -103 44 -46 83 -124 90 -180 7 -53 6 -52 54 -38 19 6 80 20 135 30 55 11 143 29 195 40 52 12 110 24 128 27 l34 6 -7 46 c-22 149 -146 327 -299 429 -56 37 -213 112 -235 112 -6 0 -30 7 -55 15 -151 52 -489 69 -684 34z"
       id="path4441" />
    <path
       d="M16976 14032 c-2 -4 -14 -57 -26 -117 -26 -131 -52 -253 -74 -354 -9 -41 -14 -76 -12 -78 2 -2 21 0 43 6 36 10 71 17 288 61 176 35 249 50 250 53 1 1 6 27 12 57 12 58 44 214 67 318 l14 62 -279 0 c-153 0 -280 -3 -283 -8z"
       id="path4443"
       style="fill:#ed305f;fill-opacity:1" />
    <path
       d="M17657 14008 c-5 -32 -27 -141 -61 -297 -9 -41 -15 -76 -12 -78 2 -2 41 5 87 15 46 11 131 29 189 41 58 12 146 31 196 42 l92 21 16 86 c10 48 21 101 26 117 4 17 11 42 14 58 l6 27 -274 0 -274 0 -5 -32z"
       id="path4445"
       style="fill:#2fef8f;fill-opacity:1" />
    <path
       d="M18335 14030 c-3 -5 -14 -53 -25 -107 -11 -54 -22 -108 -26 -121 -6 -22 -5 -23 32 -17 22 4 66 13 99 21 33 8 94 21 135 29 182 36 266 54 281 60 10 4 21 27 27 58 6 29 14 60 17 70 7 16 -10 17 -263 17 -165 0 -273 -4 -277 -10z"
       id="path4447"
       style="fill:#edbf30;fill-opacity:1" />
    <path
       d="M18995 13998 c-3 -24 -9 -51 -12 -62 -3 -11 -1 -16 5 -12 5 3 56 15 113 27 57 11 147 30 199 41 52 11 127 26 165 33 65 12 52 13 -197 14 l-266 1 -7 -42z"
       id="path4449"
       style="fill:#2fbfef;fill-opacity:1" />
    <path
       d="M19555 13984 c-16 -8 -84 -34 -150 -59 -66 -25 -129 -50 -140 -55 -11 -5 -56 -23 -100 -39 -44 -16 -111 -42 -149 -58 -78 -32 -73 -23 -106 -183 -11 -52 -29 -135 -40 -185 -34 -159 -59 -278 -81 -380 -42 -198 -57 -272 -79 -370 -12 -55 -30 -140 -40 -190 -10 -49 -28 -130 -38 -180 -11 -49 -30 -137 -42 -195 -12 -58 -31 -145 -41 -195 -37 -172 -58 -270 -74 -350 -8 -44 -20 -90 -25 -102 l-10 -23 303 0 303 0 12 63 c12 62 31 156 72 342 12 55 30 141 40 190 10 50 28 133 39 185 12 52 30 140 42 195 12 55 29 138 39 185 10 47 28 132 40 190 25 118 49 230 79 370 12 52 30 138 41 190 11 52 28 136 39 185 54 252 100 479 98 481 -1 1 -15 -5 -32 -12z"
       id="path4451"
       style="fill:#2fbfef;fill-opacity:1" />
    <path
       d="M13848 13914 c-7 -6 -192 -37 -583 -99 -168 -26 -290 -46 -345 -56 -30 -5 -113 -19 -185 -30 -125 -20 -221 -35 -500 -80 -71 -12 -145 -23 -162 -26 l-33 -5 0 -1099 0 -1099 285 0 285 0 0 188 c0 103 1 333 3 512 l2 325 450 -3 c407 -3 451 -5 463 -20 24 -29 56 -108 142 -347 28 -77 54 -149 59 -160 13 -32 48 -123 81 -215 17 -47 34 -94 39 -105 5 -11 22 -55 37 -97 l29 -78 277 0 278 0 -35 98 c-19 53 -40 106 -45 117 -5 11 -16 38 -23 60 -8 22 -34 92 -57 155 -23 63 -49 133 -57 155 -7 22 -16 47 -20 55 -3 8 -23 62 -44 120 -21 58 -57 155 -79 215 -23 61 -43 117 -45 126 -2 8 -12 35 -23 60 -29 66 -62 151 -62 160 0 5 28 37 63 71 69 70 113 146 148 258 21 66 24 94 24 240 0 133 -4 176 -18 220 -51 153 -121 256 -239 353 -41 34 -93 49 -110 31z m-468 -318 c188 -35 280 -155 280 -369 0 -163 -54 -273 -165 -333 -86 -47 -150 -54 -542 -54 l-343 0 0 378 c0 208 3 382 7 385 13 14 684 7 763 -7z"
       id="path4453" />
    <path
       d="M18755 13670 c-22 -11 -43 -19 -48 -20 -8 0 -327 -124 -374 -146 -17 -8 -34 -14 -38 -14 -6 0 -75 -30 -83 -36 -2 -1 -12 -45 -23 -96 -21 -102 -51 -244 -80 -383 -41 -188 -81 -377 -119 -555 -12 -58 -31 -145 -41 -195 -11 -49 -28 -130 -39 -180 -10 -49 -28 -133 -40 -185 -11 -52 -29 -140 -40 -195 -11 -55 -26 -129 -34 -165 -9 -36 -15 -68 -16 -72 0 -5 124 -8 275 -8 l275 0 0 26 c0 14 9 64 19 112 11 48 29 132 41 187 12 55 28 132 37 170 9 39 22 99 29 135 7 36 22 110 34 165 34 158 81 379 120 565 12 58 30 143 40 190 10 47 28 132 40 190 12 58 30 143 40 190 10 47 27 130 39 186 11 55 25 113 30 127 12 32 9 32 -44 7z"
       id="path4455"
       style="fill:#edbf30;fill-opacity:1" />
    <path
       d="M11125 13471 c-11 -5 -49 -12 -85 -16 -36 -3 -92 -13 -125 -20 -33 -7 -90 -16 -128 -20 -37 -4 -70 -11 -73 -16 -3 -5 2 -23 10 -41 8 -18 37 -100 65 -183 28 -82 80 -235 116 -340 101 -294 135 -394 135 -405 0 -10 -682 -15 -692 -5 -4 5 24 92 50 158 7 15 15 40 18 54 4 15 13 38 20 52 8 14 14 31 14 36 0 11 84 251 105 300 7 17 18 46 23 65 10 34 78 225 101 284 11 28 11 28 -16 22 -32 -7 -233 -40 -401 -65 -66 -10 -118 -23 -126 -31 -7 -8 -21 -35 -29 -60 -39 -112 -48 -136 -57 -155 -5 -11 -25 -63 -44 -115 -20 -52 -56 -149 -81 -215 -26 -66 -51 -133 -56 -150 -5 -16 -13 -39 -18 -50 -16 -32 -61 -151 -61 -159 0 -5 -6 -22 -14 -39 -22 -49 -66 -163 -66 -171 0 -5 -7 -22 -15 -39 -8 -18 -28 -70 -45 -117 -17 -47 -35 -94 -40 -105 -9 -19 -66 -171 -97 -260 -7 -22 -18 -49 -23 -60 -15 -33 -60 -151 -60 -158 0 -3 60 37 133 91 72 53 143 105 157 115 14 10 50 36 80 58 30 22 66 48 79 57 13 9 35 26 50 38 14 11 83 62 152 113 l127 91 493 -2 493 -3 37 -110 c20 -60 49 -147 63 -192 14 -45 30 -90 35 -100 6 -10 20 -50 31 -89 12 -39 25 -76 29 -82 7 -12 591 -22 591 -10 0 12 -79 228 -96 259 -9 18 -33 80 -54 138 -21 58 -47 131 -59 161 -12 30 -38 98 -57 150 -19 52 -39 104 -44 115 -5 11 -16 38 -23 60 -31 88 -88 241 -97 260 -5 11 -16 38 -23 60 -31 88 -88 241 -97 260 -5 11 -16 38 -23 60 -31 88 -88 241 -97 260 -5 11 -16 38 -23 60 -8 22 -29 79 -47 128 -31 85 -33 87 -63 86 -18 0 -41 -4 -52 -8z"
       id="path4457" />
    <path
       d="M18005 13379 c-27 -11 -64 -26 -82 -34 -17 -8 -34 -15 -38 -15 -4 0 -21 -6 -38 -14 -18 -8 -75 -31 -127 -51 -185 -71 -225 -88 -234 -95 -4 -5 -14 -37 -21 -72 -7 -34 -23 -108 -34 -163 -12 -55 -30 -140 -40 -190 -11 -49 -29 -135 -41 -190 -12 -55 -31 -138 -41 -185 -10 -47 -25 -114 -33 -150 -18 -76 -38 -167 -66 -300 -18 -88 -44 -208 -90 -417 l-18 -83 273 0 272 0 17 68 c8 37 22 101 31 142 8 41 24 116 35 165 21 88 40 180 80 375 11 52 29 136 40 185 11 50 29 135 41 190 37 175 56 267 79 375 12 58 30 143 40 190 10 47 25 121 34 165 9 44 18 90 21 103 6 26 5 26 -60 1z"
       id="path4459"
       style="fill:#2fef8f;fill-opacity:1" />
    <path
       d="M17320 13109 c-8 -5 -58 -25 -110 -45 -202 -77 -276 -106 -307 -120 -17 -8 -35 -14 -40 -14 -4 -1 -26 -9 -48 -20 -22 -11 -48 -19 -57 -20 -24 0 -31 -15 -49 -110 -9 -47 -26 -130 -38 -185 -12 -55 -29 -134 -37 -175 -8 -41 -21 -102 -29 -135 -8 -33 -24 -105 -35 -160 -12 -55 -28 -118 -36 -140 -12 -37 -95 -441 -107 -527 -6 -43 -16 -39 108 -39 36 0 152 0 258 0 l193 1 28 128 c15 70 48 219 73 332 25 113 49 234 54 270 5 36 17 106 28 155 10 50 29 137 41 195 12 58 31 146 41 195 11 50 28 131 38 180 10 50 26 123 35 164 9 41 15 75 14 76 -2 2 -10 -1 -18 -6z"
       id="path4461"
       style="fill:#ed305f;fill-opacity:1" />
    <path
       d="M7715 12919 c-40 -8 -237 -40 -397 -64 -48 -7 -92 -17 -99 -21 -15 -9 -4 -287 15 -389 69 -353 234 -617 496 -793 244 -164 486 -229 820 -219 391 12 692 153 887 414 107 144 184 338 209 522 l7 51 -276 0 -275 0 -5 -32 c-28 -191 -155 -380 -307 -457 -117 -59 -294 -77 -459 -46 -227 43 -404 207 -500 460 -17 44 -41 159 -52 250 -10 75 -5 288 7 320 7 17 -8 18 -71 4z"
       id="path4463" />
  </g>
</svg>
